# xmcd
#
# Track frame offsets: 
#        150
#        56112
#        107952
#        137285
#
# Disc length: 2340 seconds
#
# Revision: 0
# Processed by: cddbd v1.5.2PL0 Copyright (c) Steve Scherf et al.
# Submitted via: ExactAudioCopyFreeDBPlugin 1.0
#
DISCID=32092204
DTITLE=Slovak Philharmonic Orchestra, Bystrík Režucha and Alexander Catt
DTITLE=arino (piano) - Gershwin‧Anninsell
DYEAR=1986
DGENRE=Classical
TTITLE0=Gershwin‧Concerto in F major for Piano and Orchestra：I. Allegr
TTITLE0=o
TTITLE1=Gershwin‧Concerto in F major for Piano and Orchestra：II. Andan
TTITLE1=te con moto
TTITLE2=Gershwin‧Concerto in F major for Piano and Orchestra：III. Alle
TTITLE2=gro agitato
TTITLE3=Anninsell‧Warsaw Concerto
EXTD=
EXTT0=
EXTT1=
EXTT2=
EXTT3=
PLAYORDER=
